<?xml version='1.0' encoding='iso-8859-1'?>
<!DOCTYPE svg PUBLIC '-//W3C//DTD SVG 1.1//EN' 'http://www.w3.org/Graphics/SVG/1.1/DTD/svg11.dtd'>
<!-- Uploaded to: SVG Repo, www.svgrepo.com, Generator: SVG Repo Mixer Tools -->
<svg fill="#000000" height="800px" width="800px" version="1.1" xmlns="http://www.w3.org/2000/svg" viewBox="0 0 468.742 468.742" xmlns:xlink="http://www.w3.org/1999/xlink" enable-background="new 0 0 468.742 468.742">
  <g>
    <circle cx="425.956" cy="14.59" r="8.364"/>
    <circle cx="374.856" cy="8.364" r="8.364"/>
    <circle cx="341.526" cy="35.525" r="8.364"/>
    <circle cx="447.667" cy="61.265" r="8.364"/>
    <circle cx="432.136" cy="101.357" r="8.364"/>
    <path d="m348.013,175.33l68.391-101.298c10.145-15.026 8.817-33.535-3.021-42.136-3.908-2.839-8.69-4.34-13.829-4.34-9.937,0-20.097,5.416-27.178,14.488l-76.583,98.11c-17.235-42.755-62.593-72.165-64.763-73.552l-5.386-3.442-5.385,3.442c-2.466,1.576-60.497,39.198-70.02,91.459-1.495,8.203-1.726,16.292-0.7,24.24-7.243-3.432-15.007-5.712-23.271-6.826-52.65-7.088-106.358,36.473-108.619,38.331l-4.938,4.058 1.609,6.186c0.737,2.832 18.584,69.649 65.345,94.857 7.339,3.957 14.96,6.676 22.836,8.156-5.501,5.827-10.069,12.506-13.682,20.021-23.014,47.877 1.821,112.423 2.89,115.148l2.334,5.95 6.38,.381c2.92,0.172 71.982,3.849 110.405-32.833 6.036-5.763 10.981-12.177 14.824-19.217 3.843,7.04 8.788,13.454 14.824,19.217 31.449,30.023 83.421,33.011 102.855,33.011 4.31,0 7.02-0.147 7.55-0.178l6.38-.381 2.333-5.95c1.068-2.725 25.904-67.271 2.89-115.148-3.612-7.515-8.18-14.195-13.682-20.022 7.875-1.48 15.499-4.2 22.837-8.156 46.761-25.207 64.608-92.025 65.345-94.857l1.609-6.186-4.938-4.058c-1.903-1.564-41.37-33.571-85.642-38.475zm40.128-120.979c3.664-4.693 8.878-9.227 13.485-6.274 4.608,2.953 2.717,8.076-1.799,14.764l-158.676,235.025c-0.699,1.037-7.071,10.127-15.263,10.127-3.156,0-6.595-1.335-10.219-3.968-4.433-3.221-6.85-6.645-7.388-10.468-1.019-7.238 4.714-14.831 5.372-15.672l174.488-223.534zm-26.043,246.979c-14.884,8.006-30.891,9.211-48.864,3.662-0.898-0.305-1.808-0.6-2.726-0.884l-6.18,19.02c0.911,0.309 1.821,0.605 2.727,0.887 17.8,6.074 30.044,16.458 37.379,31.683 15.564,32.303 3.861,76.827-1.321,93.026-16.996-0.055-62.827-2.638-88.825-27.458-12.8-12.22-18.892-27.915-18.626-47.982l.116-10.133h-20.267l.134,10.133c0.266,20.045-5.813,35.728-18.585,47.942-25.907,24.778-71.853,27.411-88.87,27.489-5.187-16.217-16.878-60.724-1.318-93.017 7.336-15.226 19.577-25.609 37.379-31.683 0.906-0.282 1.815-0.578 2.726-0.887l-6.18-19.02c-0.919,0.285-1.828,0.58-2.727,0.884-17.973,5.551-33.979,4.344-48.864-3.662-31.579-16.986-48.282-59.886-53.611-76.039 13.781-9.944 52.382-34.793 88.001-29.995 16.773,2.26 30.452,10.698 41.743,25.769 0.548,0.774 1.111,1.548 1.687,2.318l16.179-11.755c-0.555-0.785-1.115-1.558-1.683-2.318-10.832-15.378-14.633-30.975-11.619-47.605 6.396-35.282 42.034-64.424 55.749-74.484 13.406,9.808 47.662,37.766 55.221,72.047l-45.221,57.932v-17.724h-20v43.346l-17.765,22.758c-0.684,0.875-1.744,2.318-2.917,4.22l-52.593-17.088-6.181,19.021 52.118,16.934c-0.229,2.464-0.21,5.036 0.162,7.679 0.659,4.682 2.666,10.918 7.999,17.085l-32.29,44.442 16.18,11.756 32.278-44.426c4.359,1.851 8.789,2.791 13.245,2.791 4.77,0 9.061-1.06 12.849-2.688l32.202,44.322 16.181-11.756-32.499-44.731c1.413-1.67 2.455-3.117 3.108-4.085l16.156-23.929 41.223-13.395-6.181-19.021-16.854,5.476 42.837-63.449c33.41-0.929 67.92,21.299 80.796,30.563-5.337,16.168-22.04,59.048-53.608,76.029z"/>
  </g>
</svg>